<?xml version="1.0" encoding="utf-8"?>
<svg xmlns="http://www.w3.org/2000/svg" xmlns:xlink="http://www.w3.org/1999/xlink" xml:space="preserve" width="999" height="999" viewBox="0 0 999 999"><rect width="999" height="999" fill="#ffffff" x="0" y="0"/><g fill="#000000">
<g transform="translate(270,54) scale(4.635)"><rect width="6" height="6"/></g>
<g transform="translate(297,54) scale(4.635)"><rect width="6" height="6"/></g>
<g transform="translate(324,54) scale(4.635)"><rect width="6" height="6"/></g>
<g transform="translate(351,54) scale(4.635)"><rect width="6" height="6"/></g>
<g transform="translate(378,54) scale(4.635)"><rect width="6" height="6"/></g>
<g transform="translate(405,54) scale(4.635)"><rect width="6" height="6"/></g>
<g transform="translate(513,54) scale(4.635)"><rect width="6" height="6"/></g>
<g transform="translate(540,54) scale(4.635)"><rect width="6" height="6"/></g>
<g transform="translate(567,54) scale(4.635)"><rect width="6" height="6"/></g>
<g transform="translate(594,54) scale(4.635)"><rect width="6" height="6"/></g>
<g transform="translate(675,54) scale(4.635)"><rect width="6" height="6"/></g>
<g transform="translate(351,81) scale(4.635)"><rect width="6" height="6"/></g>
<g transform="translate(405,81) scale(4.635)"><rect width="6" height="6"/></g>
<g transform="translate(486,81) scale(4.635)"><rect width="6" height="6"/></g>
<g transform="translate(513,81) scale(4.635)"><rect width="6" height="6"/></g>
<g transform="translate(648,81) scale(4.635)"><rect width="6" height="6"/></g>
<g transform="translate(297,108) scale(4.635)"><rect width="6" height="6"/></g>
<g transform="translate(324,108) scale(4.635)"><rect width="6" height="6"/></g>
<g transform="translate(378,108) scale(4.635)"><rect width="6" height="6"/></g>
<g transform="translate(405,108) scale(4.635)"><rect width="6" height="6"/></g>
<g transform="translate(432,108) scale(4.635)"><rect width="6" height="6"/></g>
<g transform="translate(459,108) scale(4.635)"><rect width="6" height="6"/></g>
<g transform="translate(513,108) scale(4.635)"><rect width="6" height="6"/></g>
<g transform="translate(540,108) scale(4.635)"><rect width="6" height="6"/></g>
<g transform="translate(567,108) scale(4.635)"><rect width="6" height="6"/></g>
<g transform="translate(324,135) scale(4.635)"><rect width="6" height="6"/></g>
<g transform="translate(378,135) scale(4.635)"><rect width="6" height="6"/></g>
<g transform="translate(432,135) scale(4.635)"><rect width="6" height="6"/></g>
<g transform="translate(486,135) scale(4.635)"><rect width="6" height="6"/></g>
<g transform="translate(594,135) scale(4.635)"><rect width="6" height="6"/></g>
<g transform="translate(621,135) scale(4.635)"><rect width="6" height="6"/></g>
<g transform="translate(648,135) scale(4.635)"><rect width="6" height="6"/></g>
<g transform="translate(270,162) scale(4.635)"><rect width="6" height="6"/></g>
<g transform="translate(297,162) scale(4.635)"><rect width="6" height="6"/></g>
<g transform="translate(351,162) scale(4.635)"><rect width="6" height="6"/></g>
<g transform="translate(405,162) scale(4.635)"><rect width="6" height="6"/></g>
<g transform="translate(459,162) scale(4.635)"><rect width="6" height="6"/></g>
<g transform="translate(486,162) scale(4.635)"><rect width="6" height="6"/></g>
<g transform="translate(513,162) scale(4.635)"><rect width="6" height="6"/></g>
<g transform="translate(540,162) scale(4.635)"><rect width="6" height="6"/></g>
<g transform="translate(621,162) scale(4.635)"><rect width="6" height="6"/></g>
<g transform="translate(702,162) scale(4.635)"><rect width="6" height="6"/></g>
<g transform="translate(270,189) scale(4.635)"><rect width="6" height="6"/></g>
<g transform="translate(297,189) scale(4.635)"><rect width="6" height="6"/></g>
<g transform="translate(405,189) scale(4.635)"><rect width="6" height="6"/></g>
<g transform="translate(486,189) scale(4.635)"><rect width="6" height="6"/></g>
<g transform="translate(513,189) scale(4.635)"><rect width="6" height="6"/></g>
<g transform="translate(540,189) scale(4.635)"><rect width="6" height="6"/></g>
<g transform="translate(594,189) scale(4.635)"><rect width="6" height="6"/></g>
<g transform="translate(270,216) scale(4.635)"><rect width="6" height="6"/></g>
<g transform="translate(324,216) scale(4.635)"><rect width="6" height="6"/></g>
<g transform="translate(378,216) scale(4.635)"><rect width="6" height="6"/></g>
<g transform="translate(432,216) scale(4.635)"><rect width="6" height="6"/></g>
<g transform="translate(486,216) scale(4.635)"><rect width="6" height="6"/></g>
<g transform="translate(540,216) scale(4.635)"><rect width="6" height="6"/></g>
<g transform="translate(594,216) scale(4.635)"><rect width="6" height="6"/></g>
<g transform="translate(648,216) scale(4.635)"><rect width="6" height="6"/></g>
<g transform="translate(702,216) scale(4.635)"><rect width="6" height="6"/></g>
<g transform="translate(324,243) scale(4.635)"><rect width="6" height="6"/></g>
<g transform="translate(351,243) scale(4.635)"><rect width="6" height="6"/></g>
<g transform="translate(405,243) scale(4.635)"><rect width="6" height="6"/></g>
<g transform="translate(459,243) scale(4.635)"><rect width="6" height="6"/></g>
<g transform="translate(621,243) scale(4.635)"><rect width="6" height="6"/></g>
<g transform="translate(702,243) scale(4.635)"><rect width="6" height="6"/></g>
<g transform="translate(81,270) scale(4.635)"><rect width="6" height="6"/></g>
<g transform="translate(108,270) scale(4.635)"><rect width="6" height="6"/></g>
<g transform="translate(135,270) scale(4.635)"><rect width="6" height="6"/></g>
<g transform="translate(162,270) scale(4.635)"><rect width="6" height="6"/></g>
<g transform="translate(189,270) scale(4.635)"><rect width="6" height="6"/></g>
<g transform="translate(216,270) scale(4.635)"><rect width="6" height="6"/></g>
<g transform="translate(243,270) scale(4.635)"><rect width="6" height="6"/></g>
<g transform="translate(378,270) scale(4.635)"><rect width="6" height="6"/></g>
<g transform="translate(486,270) scale(4.635)"><rect width="6" height="6"/></g>
<g transform="translate(513,270) scale(4.635)"><rect width="6" height="6"/></g>
<g transform="translate(594,270) scale(4.635)"><rect width="6" height="6"/></g>
<g transform="translate(783,270) scale(4.635)"><rect width="6" height="6"/></g>
<g transform="translate(810,270) scale(4.635)"><rect width="6" height="6"/></g>
<g transform="translate(918,270) scale(4.635)"><rect width="6" height="6"/></g>
<g transform="translate(54,297) scale(4.635)"><rect width="6" height="6"/></g>
<g transform="translate(135,297) scale(4.635)"><rect width="6" height="6"/></g>
<g transform="translate(162,297) scale(4.635)"><rect width="6" height="6"/></g>
<g transform="translate(189,297) scale(4.635)"><rect width="6" height="6"/></g>
<g transform="translate(351,297) scale(4.635)"><rect width="6" height="6"/></g>
<g transform="translate(378,297) scale(4.635)"><rect width="6" height="6"/></g>
<g transform="translate(459,297) scale(4.635)"><rect width="6" height="6"/></g>
<g transform="translate(540,297) scale(4.635)"><rect width="6" height="6"/></g>
<g transform="translate(567,297) scale(4.635)"><rect width="6" height="6"/></g>
<g transform="translate(594,297) scale(4.635)"><rect width="6" height="6"/></g>
<g transform="translate(621,297) scale(4.635)"><rect width="6" height="6"/></g>
<g transform="translate(675,297) scale(4.635)"><rect width="6" height="6"/></g>
<g transform="translate(756,297) scale(4.635)"><rect width="6" height="6"/></g>
<g transform="translate(783,297) scale(4.635)"><rect width="6" height="6"/></g>
<g transform="translate(837,297) scale(4.635)"><rect width="6" height="6"/></g>
<g transform="translate(864,297) scale(4.635)"><rect width="6" height="6"/></g>
<g transform="translate(891,297) scale(4.635)"><rect width="6" height="6"/></g>
<g transform="translate(918,297) scale(4.635)"><rect width="6" height="6"/></g>
<g transform="translate(54,324) scale(4.635)"><rect width="6" height="6"/></g>
<g transform="translate(108,324) scale(4.635)"><rect width="6" height="6"/></g>
<g transform="translate(135,324) scale(4.635)"><rect width="6" height="6"/></g>
<g transform="translate(216,324) scale(4.635)"><rect width="6" height="6"/></g>
<g transform="translate(243,324) scale(4.635)"><rect width="6" height="6"/></g>
<g transform="translate(324,324) scale(4.635)"><rect width="6" height="6"/></g>
<g transform="translate(378,324) scale(4.635)"><rect width="6" height="6"/></g>
<g transform="translate(405,324) scale(4.635)"><rect width="6" height="6"/></g>
<g transform="translate(432,324) scale(4.635)"><rect width="6" height="6"/></g>
<g transform="translate(486,324) scale(4.635)"><rect width="6" height="6"/></g>
<g transform="translate(540,324) scale(4.635)"><rect width="6" height="6"/></g>
<g transform="translate(621,324) scale(4.635)"><rect width="6" height="6"/></g>
<g transform="translate(702,324) scale(4.635)"><rect width="6" height="6"/></g>
<g transform="translate(810,324) scale(4.635)"><rect width="6" height="6"/></g>
<g transform="translate(864,324) scale(4.635)"><rect width="6" height="6"/></g>
<g transform="translate(891,324) scale(4.635)"><rect width="6" height="6"/></g>
<g transform="translate(81,351) scale(4.635)"><rect width="6" height="6"/></g>
<g transform="translate(135,351) scale(4.635)"><rect width="6" height="6"/></g>
<g transform="translate(162,351) scale(4.635)"><rect width="6" height="6"/></g>
<g transform="translate(243,351) scale(4.635)"><rect width="6" height="6"/></g>
<g transform="translate(270,351) scale(4.635)"><rect width="6" height="6"/></g>
<g transform="translate(297,351) scale(4.635)"><rect width="6" height="6"/></g>
<g transform="translate(324,351) scale(4.635)"><rect width="6" height="6"/></g>
<g transform="translate(351,351) scale(4.635)"><rect width="6" height="6"/></g>
<g transform="translate(405,351) scale(4.635)"><rect width="6" height="6"/></g>
<g transform="translate(459,351) scale(4.635)"><rect width="6" height="6"/></g>
<g transform="translate(486,351) scale(4.635)"><rect width="6" height="6"/></g>
<g transform="translate(567,351) scale(4.635)"><rect width="6" height="6"/></g>
<g transform="translate(594,351) scale(4.635)"><rect width="6" height="6"/></g>
<g transform="translate(621,351) scale(4.635)"><rect width="6" height="6"/></g>
<g transform="translate(648,351) scale(4.635)"><rect width="6" height="6"/></g>
<g transform="translate(702,351) scale(4.635)"><rect width="6" height="6"/></g>
<g transform="translate(756,351) scale(4.635)"><rect width="6" height="6"/></g>
<g transform="translate(810,351) scale(4.635)"><rect width="6" height="6"/></g>
<g transform="translate(837,351) scale(4.635)"><rect width="6" height="6"/></g>
<g transform="translate(864,351) scale(4.635)"><rect width="6" height="6"/></g>
<g transform="translate(891,351) scale(4.635)"><rect width="6" height="6"/></g>
<g transform="translate(108,378) scale(4.635)"><rect width="6" height="6"/></g>
<g transform="translate(162,378) scale(4.635)"><rect width="6" height="6"/></g>
<g transform="translate(189,378) scale(4.635)"><rect width="6" height="6"/></g>
<g transform="translate(216,378) scale(4.635)"><rect width="6" height="6"/></g>
<g transform="translate(297,378) scale(4.635)"><rect width="6" height="6"/></g>
<g transform="translate(351,378) scale(4.635)"><rect width="6" height="6"/></g>
<g transform="translate(540,378) scale(4.635)"><rect width="6" height="6"/></g>
<g transform="translate(567,378) scale(4.635)"><rect width="6" height="6"/></g>
<g transform="translate(621,378) scale(4.635)"><rect width="6" height="6"/></g>
<g transform="translate(675,378) scale(4.635)"><rect width="6" height="6"/></g>
<g transform="translate(702,378) scale(4.635)"><rect width="6" height="6"/></g>
<g transform="translate(729,378) scale(4.635)"><rect width="6" height="6"/></g>
<g transform="translate(783,378) scale(4.635)"><rect width="6" height="6"/></g>
<g transform="translate(837,378) scale(4.635)"><rect width="6" height="6"/></g>
<g transform="translate(54,405) scale(4.635)"><rect width="6" height="6"/></g>
<g transform="translate(81,405) scale(4.635)"><rect width="6" height="6"/></g>
<g transform="translate(108,405) scale(4.635)"><rect width="6" height="6"/></g>
<g transform="translate(135,405) scale(4.635)"><rect width="6" height="6"/></g>
<g transform="translate(162,405) scale(4.635)"><rect width="6" height="6"/></g>
<g transform="translate(189,405) scale(4.635)"><rect width="6" height="6"/></g>
<g transform="translate(270,405) scale(4.635)"><rect width="6" height="6"/></g>
<g transform="translate(297,405) scale(4.635)"><rect width="6" height="6"/></g>
<g transform="translate(405,405) scale(4.635)"><rect width="6" height="6"/></g>
<g transform="translate(459,405) scale(4.635)"><rect width="6" height="6"/></g>
<g transform="translate(486,405) scale(4.635)"><rect width="6" height="6"/></g>
<g transform="translate(594,405) scale(4.635)"><rect width="6" height="6"/></g>
<g transform="translate(648,405) scale(4.635)"><rect width="6" height="6"/></g>
<g transform="translate(756,405) scale(4.635)"><rect width="6" height="6"/></g>
<g transform="translate(864,405) scale(4.635)"><rect width="6" height="6"/></g>
<g transform="translate(891,405) scale(4.635)"><rect width="6" height="6"/></g>
<g transform="translate(918,405) scale(4.635)"><rect width="6" height="6"/></g>
<g transform="translate(54,432) scale(4.635)"><rect width="6" height="6"/></g>
<g transform="translate(108,432) scale(4.635)"><rect width="6" height="6"/></g>
<g transform="translate(162,432) scale(4.635)"><rect width="6" height="6"/></g>
<g transform="translate(189,432) scale(4.635)"><rect width="6" height="6"/></g>
<g transform="translate(216,432) scale(4.635)"><rect width="6" height="6"/></g>
<g transform="translate(351,432) scale(4.635)"><rect width="6" height="6"/></g>
<g transform="translate(405,432) scale(4.635)"><rect width="6" height="6"/></g>
<g transform="translate(459,432) scale(4.635)"><rect width="6" height="6"/></g>
<g transform="translate(486,432) scale(4.635)"><rect width="6" height="6"/></g>
<g transform="translate(513,432) scale(4.635)"><rect width="6" height="6"/></g>
<g transform="translate(567,432) scale(4.635)"><rect width="6" height="6"/></g>
<g transform="translate(648,432) scale(4.635)"><rect width="6" height="6"/></g>
<g transform="translate(675,432) scale(4.635)"><rect width="6" height="6"/></g>
<g transform="translate(702,432) scale(4.635)"><rect width="6" height="6"/></g>
<g transform="translate(729,432) scale(4.635)"><rect width="6" height="6"/></g>
<g transform="translate(756,432) scale(4.635)"><rect width="6" height="6"/></g>
<g transform="translate(810,432) scale(4.635)"><rect width="6" height="6"/></g>
<g transform="translate(891,432) scale(4.635)"><rect width="6" height="6"/></g>
<g transform="translate(54,459) scale(4.635)"><rect width="6" height="6"/></g>
<g transform="translate(135,459) scale(4.635)"><rect width="6" height="6"/></g>
<g transform="translate(270,459) scale(4.635)"><rect width="6" height="6"/></g>
<g transform="translate(351,459) scale(4.635)"><rect width="6" height="6"/></g>
<g transform="translate(432,459) scale(4.635)"><rect width="6" height="6"/></g>
<g transform="translate(459,459) scale(4.635)"><rect width="6" height="6"/></g>
<g transform="translate(486,459) scale(4.635)"><rect width="6" height="6"/></g>
<g transform="translate(540,459) scale(4.635)"><rect width="6" height="6"/></g>
<g transform="translate(567,459) scale(4.635)"><rect width="6" height="6"/></g>
<g transform="translate(594,459) scale(4.635)"><rect width="6" height="6"/></g>
<g transform="translate(621,459) scale(4.635)"><rect width="6" height="6"/></g>
<g transform="translate(675,459) scale(4.635)"><rect width="6" height="6"/></g>
<g transform="translate(729,459) scale(4.635)"><rect width="6" height="6"/></g>
<g transform="translate(756,459) scale(4.635)"><rect width="6" height="6"/></g>
<g transform="translate(810,459) scale(4.635)"><rect width="6" height="6"/></g>
<g transform="translate(837,459) scale(4.635)"><rect width="6" height="6"/></g>
<g transform="translate(864,459) scale(4.635)"><rect width="6" height="6"/></g>
<g transform="translate(54,486) scale(4.635)"><rect width="6" height="6"/></g>
<g transform="translate(108,486) scale(4.635)"><rect width="6" height="6"/></g>
<g transform="translate(135,486) scale(4.635)"><rect width="6" height="6"/></g>
<g transform="translate(189,486) scale(4.635)"><rect width="6" height="6"/></g>
<g transform="translate(216,486) scale(4.635)"><rect width="6" height="6"/></g>
<g transform="translate(270,486) scale(4.635)"><rect width="6" height="6"/></g>
<g transform="translate(378,486) scale(4.635)"><rect width="6" height="6"/></g>
<g transform="translate(405,486) scale(4.635)"><rect width="6" height="6"/></g>
<g transform="translate(486,486) scale(4.635)"><rect width="6" height="6"/></g>
<g transform="translate(540,486) scale(4.635)"><rect width="6" height="6"/></g>
<g transform="translate(567,486) scale(4.635)"><rect width="6" height="6"/></g>
<g transform="translate(648,486) scale(4.635)"><rect width="6" height="6"/></g>
<g transform="translate(675,486) scale(4.635)"><rect width="6" height="6"/></g>
<g transform="translate(702,486) scale(4.635)"><rect width="6" height="6"/></g>
<g transform="translate(729,486) scale(4.635)"><rect width="6" height="6"/></g>
<g transform="translate(783,486) scale(4.635)"><rect width="6" height="6"/></g>
<g transform="translate(810,486) scale(4.635)"><rect width="6" height="6"/></g>
<g transform="translate(918,486) scale(4.635)"><rect width="6" height="6"/></g>
<g transform="translate(54,513) scale(4.635)"><rect width="6" height="6"/></g>
<g transform="translate(81,513) scale(4.635)"><rect width="6" height="6"/></g>
<g transform="translate(135,513) scale(4.635)"><rect width="6" height="6"/></g>
<g transform="translate(189,513) scale(4.635)"><rect width="6" height="6"/></g>
<g transform="translate(243,513) scale(4.635)"><rect width="6" height="6"/></g>
<g transform="translate(324,513) scale(4.635)"><rect width="6" height="6"/></g>
<g transform="translate(351,513) scale(4.635)"><rect width="6" height="6"/></g>
<g transform="translate(405,513) scale(4.635)"><rect width="6" height="6"/></g>
<g transform="translate(432,513) scale(4.635)"><rect width="6" height="6"/></g>
<g transform="translate(567,513) scale(4.635)"><rect width="6" height="6"/></g>
<g transform="translate(594,513) scale(4.635)"><rect width="6" height="6"/></g>
<g transform="translate(675,513) scale(4.635)"><rect width="6" height="6"/></g>
<g transform="translate(756,513) scale(4.635)"><rect width="6" height="6"/></g>
<g transform="translate(783,513) scale(4.635)"><rect width="6" height="6"/></g>
<g transform="translate(837,513) scale(4.635)"><rect width="6" height="6"/></g>
<g transform="translate(864,513) scale(4.635)"><rect width="6" height="6"/></g>
<g transform="translate(918,513) scale(4.635)"><rect width="6" height="6"/></g>
<g transform="translate(54,540) scale(4.635)"><rect width="6" height="6"/></g>
<g transform="translate(189,540) scale(4.635)"><rect width="6" height="6"/></g>
<g transform="translate(216,540) scale(4.635)"><rect width="6" height="6"/></g>
<g transform="translate(243,540) scale(4.635)"><rect width="6" height="6"/></g>
<g transform="translate(270,540) scale(4.635)"><rect width="6" height="6"/></g>
<g transform="translate(324,540) scale(4.635)"><rect width="6" height="6"/></g>
<g transform="translate(405,540) scale(4.635)"><rect width="6" height="6"/></g>
<g transform="translate(432,540) scale(4.635)"><rect width="6" height="6"/></g>
<g transform="translate(459,540) scale(4.635)"><rect width="6" height="6"/></g>
<g transform="translate(513,540) scale(4.635)"><rect width="6" height="6"/></g>
<g transform="translate(540,540) scale(4.635)"><rect width="6" height="6"/></g>
<g transform="translate(594,540) scale(4.635)"><rect width="6" height="6"/></g>
<g transform="translate(648,540) scale(4.635)"><rect width="6" height="6"/></g>
<g transform="translate(702,540) scale(4.635)"><rect width="6" height="6"/></g>
<g transform="translate(756,540) scale(4.635)"><rect width="6" height="6"/></g>
<g transform="translate(783,540) scale(4.635)"><rect width="6" height="6"/></g>
<g transform="translate(810,540) scale(4.635)"><rect width="6" height="6"/></g>
<g transform="translate(864,540) scale(4.635)"><rect width="6" height="6"/></g>
<g transform="translate(891,540) scale(4.635)"><rect width="6" height="6"/></g>
<g transform="translate(108,567) scale(4.635)"><rect width="6" height="6"/></g>
<g transform="translate(135,567) scale(4.635)"><rect width="6" height="6"/></g>
<g transform="translate(162,567) scale(4.635)"><rect width="6" height="6"/></g>
<g transform="translate(189,567) scale(4.635)"><rect width="6" height="6"/></g>
<g transform="translate(297,567) scale(4.635)"><rect width="6" height="6"/></g>
<g transform="translate(324,567) scale(4.635)"><rect width="6" height="6"/></g>
<g transform="translate(351,567) scale(4.635)"><rect width="6" height="6"/></g>
<g transform="translate(378,567) scale(4.635)"><rect width="6" height="6"/></g>
<g transform="translate(432,567) scale(4.635)"><rect width="6" height="6"/></g>
<g transform="translate(459,567) scale(4.635)"><rect width="6" height="6"/></g>
<g transform="translate(486,567) scale(4.635)"><rect width="6" height="6"/></g>
<g transform="translate(513,567) scale(4.635)"><rect width="6" height="6"/></g>
<g transform="translate(540,567) scale(4.635)"><rect width="6" height="6"/></g>
<g transform="translate(567,567) scale(4.635)"><rect width="6" height="6"/></g>
<g transform="translate(594,567) scale(4.635)"><rect width="6" height="6"/></g>
<g transform="translate(729,567) scale(4.635)"><rect width="6" height="6"/></g>
<g transform="translate(783,567) scale(4.635)"><rect width="6" height="6"/></g>
<g transform="translate(810,567) scale(4.635)"><rect width="6" height="6"/></g>
<g transform="translate(837,567) scale(4.635)"><rect width="6" height="6"/></g>
<g transform="translate(864,567) scale(4.635)"><rect width="6" height="6"/></g>
<g transform="translate(108,594) scale(4.635)"><rect width="6" height="6"/></g>
<g transform="translate(162,594) scale(4.635)"><rect width="6" height="6"/></g>
<g transform="translate(189,594) scale(4.635)"><rect width="6" height="6"/></g>
<g transform="translate(216,594) scale(4.635)"><rect width="6" height="6"/></g>
<g transform="translate(243,594) scale(4.635)"><rect width="6" height="6"/></g>
<g transform="translate(270,594) scale(4.635)"><rect width="6" height="6"/></g>
<g transform="translate(324,594) scale(4.635)"><rect width="6" height="6"/></g>
<g transform="translate(351,594) scale(4.635)"><rect width="6" height="6"/></g>
<g transform="translate(378,594) scale(4.635)"><rect width="6" height="6"/></g>
<g transform="translate(432,594) scale(4.635)"><rect width="6" height="6"/></g>
<g transform="translate(513,594) scale(4.635)"><rect width="6" height="6"/></g>
<g transform="translate(567,594) scale(4.635)"><rect width="6" height="6"/></g>
<g transform="translate(594,594) scale(4.635)"><rect width="6" height="6"/></g>
<g transform="translate(621,594) scale(4.635)"><rect width="6" height="6"/></g>
<g transform="translate(648,594) scale(4.635)"><rect width="6" height="6"/></g>
<g transform="translate(702,594) scale(4.635)"><rect width="6" height="6"/></g>
<g transform="translate(729,594) scale(4.635)"><rect width="6" height="6"/></g>
<g transform="translate(783,594) scale(4.635)"><rect width="6" height="6"/></g>
<g transform="translate(810,594) scale(4.635)"><rect width="6" height="6"/></g>
<g transform="translate(837,594) scale(4.635)"><rect width="6" height="6"/></g>
<g transform="translate(54,621) scale(4.635)"><rect width="6" height="6"/></g>
<g transform="translate(81,621) scale(4.635)"><rect width="6" height="6"/></g>
<g transform="translate(162,621) scale(4.635)"><rect width="6" height="6"/></g>
<g transform="translate(324,621) scale(4.635)"><rect width="6" height="6"/></g>
<g transform="translate(351,621) scale(4.635)"><rect width="6" height="6"/></g>
<g transform="translate(432,621) scale(4.635)"><rect width="6" height="6"/></g>
<g transform="translate(486,621) scale(4.635)"><rect width="6" height="6"/></g>
<g transform="translate(540,621) scale(4.635)"><rect width="6" height="6"/></g>
<g transform="translate(621,621) scale(4.635)"><rect width="6" height="6"/></g>
<g transform="translate(702,621) scale(4.635)"><rect width="6" height="6"/></g>
<g transform="translate(756,621) scale(4.635)"><rect width="6" height="6"/></g>
<g transform="translate(783,621) scale(4.635)"><rect width="6" height="6"/></g>
<g transform="translate(864,621) scale(4.635)"><rect width="6" height="6"/></g>
<g transform="translate(918,621) scale(4.635)"><rect width="6" height="6"/></g>
<g transform="translate(54,648) scale(4.635)"><rect width="6" height="6"/></g>
<g transform="translate(135,648) scale(4.635)"><rect width="6" height="6"/></g>
<g transform="translate(162,648) scale(4.635)"><rect width="6" height="6"/></g>
<g transform="translate(189,648) scale(4.635)"><rect width="6" height="6"/></g>
<g transform="translate(216,648) scale(4.635)"><rect width="6" height="6"/></g>
<g transform="translate(243,648) scale(4.635)"><rect width="6" height="6"/></g>
<g transform="translate(297,648) scale(4.635)"><rect width="6" height="6"/></g>
<g transform="translate(324,648) scale(4.635)"><rect width="6" height="6"/></g>
<g transform="translate(405,648) scale(4.635)"><rect width="6" height="6"/></g>
<g transform="translate(432,648) scale(4.635)"><rect width="6" height="6"/></g>
<g transform="translate(486,648) scale(4.635)"><rect width="6" height="6"/></g>
<g transform="translate(513,648) scale(4.635)"><rect width="6" height="6"/></g>
<g transform="translate(594,648) scale(4.635)"><rect width="6" height="6"/></g>
<g transform="translate(729,648) scale(4.635)"><rect width="6" height="6"/></g>
<g transform="translate(837,648) scale(4.635)"><rect width="6" height="6"/></g>
<g transform="translate(864,648) scale(4.635)"><rect width="6" height="6"/></g>
<g transform="translate(891,648) scale(4.635)"><rect width="6" height="6"/></g>
<g transform="translate(54,675) scale(4.635)"><rect width="6" height="6"/></g>
<g transform="translate(162,675) scale(4.635)"><rect width="6" height="6"/></g>
<g transform="translate(189,675) scale(4.635)"><rect width="6" height="6"/></g>
<g transform="translate(243,675) scale(4.635)"><rect width="6" height="6"/></g>
<g transform="translate(297,675) scale(4.635)"><rect width="6" height="6"/></g>
<g transform="translate(324,675) scale(4.635)"><rect width="6" height="6"/></g>
<g transform="translate(378,675) scale(4.635)"><rect width="6" height="6"/></g>
<g transform="translate(432,675) scale(4.635)"><rect width="6" height="6"/></g>
<g transform="translate(486,675) scale(4.635)"><rect width="6" height="6"/></g>
<g transform="translate(621,675) scale(4.635)"><rect width="6" height="6"/></g>
<g transform="translate(648,675) scale(4.635)"><rect width="6" height="6"/></g>
<g transform="translate(702,675) scale(4.635)"><rect width="6" height="6"/></g>
<g transform="translate(729,675) scale(4.635)"><rect width="6" height="6"/></g>
<g transform="translate(756,675) scale(4.635)"><rect width="6" height="6"/></g>
<g transform="translate(783,675) scale(4.635)"><rect width="6" height="6"/></g>
<g transform="translate(837,675) scale(4.635)"><rect width="6" height="6"/></g>
<g transform="translate(864,675) scale(4.635)"><rect width="6" height="6"/></g>
<g transform="translate(918,675) scale(4.635)"><rect width="6" height="6"/></g>
<g transform="translate(54,702) scale(4.635)"><rect width="6" height="6"/></g>
<g transform="translate(135,702) scale(4.635)"><rect width="6" height="6"/></g>
<g transform="translate(216,702) scale(4.635)"><rect width="6" height="6"/></g>
<g transform="translate(270,702) scale(4.635)"><rect width="6" height="6"/></g>
<g transform="translate(351,702) scale(4.635)"><rect width="6" height="6"/></g>
<g transform="translate(513,702) scale(4.635)"><rect width="6" height="6"/></g>
<g transform="translate(540,702) scale(4.635)"><rect width="6" height="6"/></g>
<g transform="translate(648,702) scale(4.635)"><rect width="6" height="6"/></g>
<g transform="translate(675,702) scale(4.635)"><rect width="6" height="6"/></g>
<g transform="translate(702,702) scale(4.635)"><rect width="6" height="6"/></g>
<g transform="translate(729,702) scale(4.635)"><rect width="6" height="6"/></g>
<g transform="translate(756,702) scale(4.635)"><rect width="6" height="6"/></g>
<g transform="translate(783,702) scale(4.635)"><rect width="6" height="6"/></g>
<g transform="translate(810,702) scale(4.635)"><rect width="6" height="6"/></g>
<g transform="translate(270,729) scale(4.635)"><rect width="6" height="6"/></g>
<g transform="translate(297,729) scale(4.635)"><rect width="6" height="6"/></g>
<g transform="translate(378,729) scale(4.635)"><rect width="6" height="6"/></g>
<g transform="translate(405,729) scale(4.635)"><rect width="6" height="6"/></g>
<g transform="translate(432,729) scale(4.635)"><rect width="6" height="6"/></g>
<g transform="translate(459,729) scale(4.635)"><rect width="6" height="6"/></g>
<g transform="translate(540,729) scale(4.635)"><rect width="6" height="6"/></g>
<g transform="translate(567,729) scale(4.635)"><rect width="6" height="6"/></g>
<g transform="translate(621,729) scale(4.635)"><rect width="6" height="6"/></g>
<g transform="translate(675,729) scale(4.635)"><rect width="6" height="6"/></g>
<g transform="translate(702,729) scale(4.635)"><rect width="6" height="6"/></g>
<g transform="translate(810,729) scale(4.635)"><rect width="6" height="6"/></g>
<g transform="translate(864,729) scale(4.635)"><rect width="6" height="6"/></g>
<g transform="translate(891,729) scale(4.635)"><rect width="6" height="6"/></g>
<g transform="translate(918,729) scale(4.635)"><rect width="6" height="6"/></g>
<g transform="translate(270,756) scale(4.635)"><rect width="6" height="6"/></g>
<g transform="translate(297,756) scale(4.635)"><rect width="6" height="6"/></g>
<g transform="translate(405,756) scale(4.635)"><rect width="6" height="6"/></g>
<g transform="translate(432,756) scale(4.635)"><rect width="6" height="6"/></g>
<g transform="translate(486,756) scale(4.635)"><rect width="6" height="6"/></g>
<g transform="translate(540,756) scale(4.635)"><rect width="6" height="6"/></g>
<g transform="translate(594,756) scale(4.635)"><rect width="6" height="6"/></g>
<g transform="translate(621,756) scale(4.635)"><rect width="6" height="6"/></g>
<g transform="translate(675,756) scale(4.635)"><rect width="6" height="6"/></g>
<g transform="translate(702,756) scale(4.635)"><rect width="6" height="6"/></g>
<g transform="translate(756,756) scale(4.635)"><rect width="6" height="6"/></g>
<g transform="translate(810,756) scale(4.635)"><rect width="6" height="6"/></g>
<g transform="translate(864,756) scale(4.635)"><rect width="6" height="6"/></g>
<g transform="translate(891,756) scale(4.635)"><rect width="6" height="6"/></g>
<g transform="translate(270,783) scale(4.635)"><rect width="6" height="6"/></g>
<g transform="translate(378,783) scale(4.635)"><rect width="6" height="6"/></g>
<g transform="translate(405,783) scale(4.635)"><rect width="6" height="6"/></g>
<g transform="translate(540,783) scale(4.635)"><rect width="6" height="6"/></g>
<g transform="translate(594,783) scale(4.635)"><rect width="6" height="6"/></g>
<g transform="translate(621,783) scale(4.635)"><rect width="6" height="6"/></g>
<g transform="translate(648,783) scale(4.635)"><rect width="6" height="6"/></g>
<g transform="translate(675,783) scale(4.635)"><rect width="6" height="6"/></g>
<g transform="translate(702,783) scale(4.635)"><rect width="6" height="6"/></g>
<g transform="translate(810,783) scale(4.635)"><rect width="6" height="6"/></g>
<g transform="translate(837,783) scale(4.635)"><rect width="6" height="6"/></g>
<g transform="translate(864,783) scale(4.635)"><rect width="6" height="6"/></g>
<g transform="translate(891,783) scale(4.635)"><rect width="6" height="6"/></g>
<g transform="translate(918,783) scale(4.635)"><rect width="6" height="6"/></g>
<g transform="translate(270,810) scale(4.635)"><rect width="6" height="6"/></g>
<g transform="translate(297,810) scale(4.635)"><rect width="6" height="6"/></g>
<g transform="translate(324,810) scale(4.635)"><rect width="6" height="6"/></g>
<g transform="translate(351,810) scale(4.635)"><rect width="6" height="6"/></g>
<g transform="translate(432,810) scale(4.635)"><rect width="6" height="6"/></g>
<g transform="translate(486,810) scale(4.635)"><rect width="6" height="6"/></g>
<g transform="translate(513,810) scale(4.635)"><rect width="6" height="6"/></g>
<g transform="translate(567,810) scale(4.635)"><rect width="6" height="6"/></g>
<g transform="translate(621,810) scale(4.635)"><rect width="6" height="6"/></g>
<g transform="translate(702,810) scale(4.635)"><rect width="6" height="6"/></g>
<g transform="translate(729,810) scale(4.635)"><rect width="6" height="6"/></g>
<g transform="translate(756,810) scale(4.635)"><rect width="6" height="6"/></g>
<g transform="translate(783,810) scale(4.635)"><rect width="6" height="6"/></g>
<g transform="translate(810,810) scale(4.635)"><rect width="6" height="6"/></g>
<g transform="translate(837,810) scale(4.635)"><rect width="6" height="6"/></g>
<g transform="translate(891,810) scale(4.635)"><rect width="6" height="6"/></g>
<g transform="translate(918,810) scale(4.635)"><rect width="6" height="6"/></g>
<g transform="translate(270,837) scale(4.635)"><rect width="6" height="6"/></g>
<g transform="translate(405,837) scale(4.635)"><rect width="6" height="6"/></g>
<g transform="translate(459,837) scale(4.635)"><rect width="6" height="6"/></g>
<g transform="translate(486,837) scale(4.635)"><rect width="6" height="6"/></g>
<g transform="translate(513,837) scale(4.635)"><rect width="6" height="6"/></g>
<g transform="translate(594,837) scale(4.635)"><rect width="6" height="6"/></g>
<g transform="translate(648,837) scale(4.635)"><rect width="6" height="6"/></g>
<g transform="translate(675,837) scale(4.635)"><rect width="6" height="6"/></g>
<g transform="translate(702,837) scale(4.635)"><rect width="6" height="6"/></g>
<g transform="translate(729,837) scale(4.635)"><rect width="6" height="6"/></g>
<g transform="translate(810,837) scale(4.635)"><rect width="6" height="6"/></g>
<g transform="translate(837,837) scale(4.635)"><rect width="6" height="6"/></g>
<g transform="translate(918,837) scale(4.635)"><rect width="6" height="6"/></g>
<g transform="translate(270,864) scale(4.635)"><rect width="6" height="6"/></g>
<g transform="translate(324,864) scale(4.635)"><rect width="6" height="6"/></g>
<g transform="translate(432,864) scale(4.635)"><rect width="6" height="6"/></g>
<g transform="translate(459,864) scale(4.635)"><rect width="6" height="6"/></g>
<g transform="translate(486,864) scale(4.635)"><rect width="6" height="6"/></g>
<g transform="translate(567,864) scale(4.635)"><rect width="6" height="6"/></g>
<g transform="translate(648,864) scale(4.635)"><rect width="6" height="6"/></g>
<g transform="translate(756,864) scale(4.635)"><rect width="6" height="6"/></g>
<g transform="translate(783,864) scale(4.635)"><rect width="6" height="6"/></g>
<g transform="translate(837,864) scale(4.635)"><rect width="6" height="6"/></g>
<g transform="translate(864,864) scale(4.635)"><rect width="6" height="6"/></g>
<g transform="translate(270,891) scale(4.635)"><rect width="6" height="6"/></g>
<g transform="translate(324,891) scale(4.635)"><rect width="6" height="6"/></g>
<g transform="translate(405,891) scale(4.635)"><rect width="6" height="6"/></g>
<g transform="translate(486,891) scale(4.635)"><rect width="6" height="6"/></g>
<g transform="translate(513,891) scale(4.635)"><rect width="6" height="6"/></g>
<g transform="translate(540,891) scale(4.635)"><rect width="6" height="6"/></g>
<g transform="translate(567,891) scale(4.635)"><rect width="6" height="6"/></g>
<g transform="translate(594,891) scale(4.635)"><rect width="6" height="6"/></g>
<g transform="translate(621,891) scale(4.635)"><rect width="6" height="6"/></g>
<g transform="translate(648,891) scale(4.635)"><rect width="6" height="6"/></g>
<g transform="translate(675,891) scale(4.635)"><rect width="6" height="6"/></g>
<g transform="translate(729,891) scale(4.635)"><rect width="6" height="6"/></g>
<g transform="translate(756,891) scale(4.635)"><rect width="6" height="6"/></g>
<g transform="translate(810,891) scale(4.635)"><rect width="6" height="6"/></g>
<g transform="translate(837,891) scale(4.635)"><rect width="6" height="6"/></g>
<g transform="translate(864,891) scale(4.635)"><rect width="6" height="6"/></g>
<g transform="translate(297,918) scale(4.635)"><rect width="6" height="6"/></g>
<g transform="translate(351,918) scale(4.635)"><rect width="6" height="6"/></g>
<g transform="translate(378,918) scale(4.635)"><rect width="6" height="6"/></g>
<g transform="translate(432,918) scale(4.635)"><rect width="6" height="6"/></g>
<g transform="translate(459,918) scale(4.635)"><rect width="6" height="6"/></g>
<g transform="translate(486,918) scale(4.635)"><rect width="6" height="6"/></g>
<g transform="translate(513,918) scale(4.635)"><rect width="6" height="6"/></g>
<g transform="translate(567,918) scale(4.635)"><rect width="6" height="6"/></g>
<g transform="translate(648,918) scale(4.635)"><rect width="6" height="6"/></g>
<g transform="translate(675,918) scale(4.635)"><rect width="6" height="6"/></g>
<g transform="translate(702,918) scale(4.635)"><rect width="6" height="6"/></g>
<g transform="translate(756,918) scale(4.635)"><rect width="6" height="6"/></g>
<g transform="translate(783,918) scale(4.635)"><rect width="6" height="6"/></g>
<g transform="translate(891,918) scale(4.635)"><rect width="6" height="6"/></g>
<g transform="translate(54,54)"><g transform="scale(13.5)"><path d="M0,0v14h14V0H0z M12,12H2V2h10V12z"/></g></g>
<g transform="translate(756,54)"><g transform="scale(13.5)"><path d="M0,0v14h14V0H0z M12,12H2V2h10V12z"/></g></g>
<g transform="translate(54,756)"><g transform="scale(13.5)"><path d="M0,0v14h14V0H0z M12,12H2V2h10V12z"/></g></g>
<g transform="translate(108,108)"><g transform="scale(13.5)"><rect width="6" height="6"/></g></g>
<g transform="translate(810,108)"><g transform="scale(13.5)"><rect width="6" height="6"/></g></g>
<g transform="translate(108,810)"><g transform="scale(13.5)"><rect width="6" height="6"/></g></g>
</g></svg>
